<svg width="15" height="20" viewBox="0 0 15 20" fill="none" xmlns="http://www.w3.org/2000/svg">
<g clip-path="url(#clip0_32_4)">
<path d="M8.73047 1.25C3.90625 1.25 0 5.16797 0 10C0 14.832 3.90625 18.75 8.73047 18.75C11.0977 18.75 13.2422 17.8047 14.8164 16.2734C15.0117 16.082 15.0625 15.7852 14.9375 15.543C14.8125 15.3008 14.543 15.1641 14.2734 15.2109C13.8906 15.2773 13.5 15.3125 13.0977 15.3125C9.3125 15.3125 6.24219 12.2344 6.24219 8.4375C6.24219 5.86719 7.64844 3.62891 9.73047 2.44922C9.96875 2.3125 10.0898 2.03906 10.0312 1.77344C9.97266 1.50781 9.74609 1.30859 9.47266 1.28516C9.22656 1.26563 8.98047 1.25391 8.73047 1.25391V1.25Z" fill="#F1C40F"/>
</g>
<defs>
<clipPath id="clip0_32_4">
<rect width="15" height="20" fill="white"/>
</clipPath>
</defs>
</svg>
