<svg width="21" height="20" viewBox="0 0 21 20" fill="none" xmlns="http://www.w3.org/2000/svg">
<g clip-path="url(#clip0_32_6)">
<path d="M14.8271 0.0467267C15.0322 0.128758 15.1798 0.304539 15.2208 0.511571L16.037 4.72641L20.4626 5.49985C20.68 5.53891 20.8646 5.67954 20.9507 5.87485C21.0368 6.07016 21.0122 6.29282 20.8851 6.4686L18.3298 9.99985L20.8851 13.5272C21.0122 13.703 21.0368 13.9256 20.9507 14.1209C20.8646 14.3163 20.68 14.4569 20.4626 14.4959L16.037 15.2733L15.2208 19.4881C15.1798 19.6952 15.0322 19.8709 14.8271 19.953C14.622 20.035 14.3882 20.0116 14.2036 19.8905L10.4999 17.4569L6.79622 19.8905C6.61165 20.0116 6.37786 20.035 6.17278 19.953C5.9677 19.8709 5.82005 19.6952 5.77903 19.4881L4.96282 15.2733L0.537236 14.4959C0.319854 14.4569 0.135283 14.3163 0.0491504 14.1209C-0.0369824 13.9256 -0.012373 13.703 0.114775 13.5272L2.67005 9.99985L0.114775 6.47251C-0.012373 6.29673 -0.0369824 6.07407 0.0491504 5.87876C0.135283 5.68344 0.319854 5.54282 0.537236 5.50376L4.96282 4.72641L5.77903 0.511571C5.82005 0.304539 5.9677 0.128758 6.17278 0.0467267C6.37786 -0.0353045 6.61165 -0.011867 6.79622 0.109227L10.4999 2.54282L14.2036 0.109227C14.3882 -0.011867 14.622 -0.0353045 14.8271 0.0467267ZM6.56243 9.99985C6.56243 9.00529 6.97727 8.05146 7.7157 7.3482C8.45412 6.64494 9.45564 6.24985 10.4999 6.24985C11.5442 6.24985 12.5457 6.64494 13.2842 7.3482C14.0226 8.05146 14.4374 9.00529 14.4374 9.99985C14.4374 10.9944 14.0226 11.9482 13.2842 12.6515C12.5457 13.3548 11.5442 13.7499 10.4999 13.7499C9.45564 13.7499 8.45412 13.3548 7.7157 12.6515C6.97727 11.9482 6.56243 10.9944 6.56243 9.99985ZM15.7499 9.99985C15.7499 8.67377 15.1968 7.402 14.2122 6.46432C13.2277 5.52664 11.8923 4.99985 10.4999 4.99985C9.10754 4.99985 7.77219 5.52664 6.78762 6.46432C5.80305 7.402 5.24993 8.67377 5.24993 9.99985C5.24993 11.3259 5.80305 12.5977 6.78762 13.5354C7.77219 14.4731 9.10754 14.9999 10.4999 14.9999C11.8923 14.9999 13.2277 14.4731 14.2122 13.5354C15.1968 12.5977 15.7499 11.3259 15.7499 9.99985Z" fill="#F1C40F" fill-opacity="0.760784"/>
</g>
<defs>
<clipPath id="clip0_32_6">
<rect width="21" height="20" fill="white"/>
</clipPath>
</defs>
</svg>
